Coordinates
version=1
nRows=5
nColumns=63
inDegrees=yes

Units are S.I. units (second, meters, Newtons, ...)
If the header above contains a line with 'inDegrees', this indicates whether rotational values are in degrees (yes) or radians (no).

endheader
time	pelvis_tilt	pelvis_list	pelvis_rotation	pelvis_tx	pelvis_ty	pelvis_tz	hip_flexion_r	hip_adduction_r	hip_rotation_r	knee_angle_r	knee_angle_r_beta	ankle_angle_r	subtalar_angle_r	mtp_angle_r	hip_flexion_l	hip_adduction_l	hip_rotation_l	knee_angle_l	knee_angle_l_beta	ankle_angle_l	subtalar_angle_l	mtp_angle_l	L5_S1_Flex_Ext	L5_S1_Lat_Bending	L5_S1_axial_rotation	L4_L5_Flex_Ext	L4_L5_Lat_Bending	L4_L5_axial_rotation	L3_L4_Flex_Ext	L3_L4_Lat_Bending	L3_L4_axial_rotation	L2_L3_Flex_Ext	L2_L3_Lat_Bending	L2_L3_axial_rotation	L1_L2_Flex_Ext	L1_L2_Lat_Bending	L1_L2_axial_rotation	L1_T12_Flex_Ext	L1_T12_Lat_Bending	L1_T12_axial_rotation	Abs_r3	Abs_r2	Abs_r1	Abs_t1	Abs_t2	neck_flexion	neck_bending	neck_rotation	arm_flex_r	arm_add_r	arm_rot_r	elbow_flex_r	pro_sup_r	wrist_flex_r	wrist_dev_r	arm_flex_l	arm_add_l	arm_rot_l	elbow_flex_l	pro_sup_l	wrist_flex_l	wrist_dev_l
      1.41463415	      1.38713570	     -1.67909620	     90.04812227	      0.19906056	      0.84722788	      0.71899388	      8.27752264	     -0.89104009	     -8.64410563	     11.14940661	      0.19459386	     24.21109928	     11.93192104	      0.00000000	      8.78577505	     -0.97832771	     -9.36612273	     12.20828609	      0.21307479	     23.47271983	      4.89238826	      0.00000000	      0.29816580	      0.18390695	     -0.08730113	      0.55372371	      0.24459624	     -0.09275745	      0.48985660	      0.44715136	     -0.09275745	      0.34077369	      0.44715136	     -0.07638849	      0.27687676	      0.37502305	     -0.07093217	      0.17037194	      0.28487187	     -0.06547585	      2.12976850	      2.08039220	     -0.48554272	      0.00000000	      0.00000000	     27.12475118	      4.05039495	     -9.52796632	      9.86454792	    -10.74288093	    123.52006771	      8.93942615	      8.01907985	     -1.32728521	    -12.77226074	      7.19392313	     -6.85370196	    133.82053194	      1.81924662	      2.13420761	     -6.00140103	    -16.98631391
      1.43902439	      1.42674000	     -1.67798444	     90.09243417	      0.19837124	      0.84714328	      0.71964892	      8.34757602	     -0.88845055	     -8.76396001	     11.26847770	      0.19667204	     24.09347600	     11.81733066	      0.00000000	      8.86867069	     -0.97055989	     -9.41283762	     12.21047369	      0.21311297	     23.50645970	      4.87518934	      0.00000000	      0.26840695	      0.17649774	     -0.07808101	      0.49845854	      0.23474199	     -0.08296107	      0.44096577	      0.42913660	     -0.08296107	      0.30676230	      0.42913660	     -0.06832088	      0.24924269	      0.35991419	     -0.06344082	      0.15336773	      0.27339500	     -0.05856076	      1.91720398	      1.99657772	     -0.43426316	      0.00000000	      0.00000000	     26.75407320	      4.05339579	     -9.44826037	      9.99725767	    -10.74644176	    123.49182587	      8.93679129	      8.01460973	     -1.32008167	    -12.79484386	      7.37922064	     -6.84945321	    133.87531679	      1.63303410	      2.17641263	     -6.13503177	    -17.08028432
      1.46341463	      1.46127779	     -1.50554052	     90.40671967	      0.19738231	      0.84721160	      0.71969762	      8.38765084	     -0.88958411	     -8.45910503	     11.84960494	      0.20681462	     24.05528076	     10.40919490	      0.00000000	      8.86928499	     -0.97687935	     -9.44702181	     12.50941210	      0.21833043	     23.62054327	      5.27064087	      0.00000000	      0.23947505	      0.17521110	     -0.24334821	      0.44472911	      0.23303076	     -0.25855747	      0.39343355	      0.42600826	     -0.25855747	      0.27369603	      0.42600826	     -0.21292968	      0.22237653	      0.35729047	     -0.19772042	      0.13683604	      0.27140199	     -0.18251115	      1.71054630	      1.98202295	     -1.35342971	      0.00000000	      0.00000000	     25.84610511	      4.80354289	     -7.39557951	     10.43483046	    -10.97117913	    122.46345375	      9.79146383	      7.97664628	     -1.37391639	    -12.66932076	      6.95488897	     -6.84543545	    136.19968121	      1.46302384	      2.30177550	    -11.05358177	    -18.11222991
      1.48780488	      1.58025974	     -1.46617809	     90.76640660	      0.19648702	      0.84708767	      0.72019487	      8.48778560	     -0.80752059	     -8.35500517	     12.15264190	      0.21210361	     23.96984949	      9.44950232	      0.00000000	      8.98231958	     -1.03900831	     -9.24914143	     12.65763901	      0.22091748	     23.71778089	      5.41969716	      0.00000000	      0.22682816	      0.17797392	     -0.40505901	      0.42124257	      0.23670531	     -0.43037520	      0.37265598	      0.43272579	     -0.43037520	      0.25924190	      0.43272579	     -0.35442663	      0.21063263	      0.36292441	     -0.32911044	      0.12960961	      0.27568160	     -0.30379426	      1.62021085	      2.01327656	     -2.25281668	      0.00000000	      0.00000000	     25.15164955	      5.08600142	     -5.89467750	     10.85250181	    -11.10507516	    121.45218058	     10.42070749	      8.03434828	     -1.44602801	    -12.52829189	      6.56247245	     -6.85880601	    136.51685676	      1.27685984	      2.32341772	    -12.72856844	    -18.38957920
      1.51219512	      1.76912047	     -1.47055179	     91.29124277	      0.19556395	      0.84682377	      0.72083314	      8.61210131	     -0.67054693	     -8.47865619	     12.39915411	      0.21640606	     23.95823750	      8.61209385	      0.00000000	      9.15775359	     -1.15519658	     -8.86395372	     12.76946839	      0.22286927	     23.82461723	      5.54861407	      0.00000000	      0.21810874	      0.18447568	     -0.59987407	      0.40504975	      0.24535265	     -0.63736620	      0.35833086	      0.44853416	     -0.63736620	      0.24927648	      0.44853416	     -0.52488981	      0.20253578	      0.37618280	     -0.48739768	      0.12462734	      0.28575282	     -0.44990555	      1.55792895	      2.08682576	     -3.33631963	      0.00000000	      0.00000000	     24.55157816	      5.40285999	     -4.31270930	     11.26724093	    -11.16469695	    120.27969831	     10.95001329	      8.15034469	     -1.61953895	    -12.27480476	      6.09768733	     -6.87349155	    135.94939143	      1.12158172	      2.29691703	    -13.52893487	    -18.74821458
